<?xml version="1.0" standalone="no"?>
<!DOCTYPE svg PUBLIC "-//W3C//DTD SVG 20010904//EN"
 "http://www.w3.org/TR/2001/REC-SVG-20010904/DTD/svg10.dtd">
<svg version="1.0" xmlns="http://www.w3.org/2000/svg"
 width="700.000000pt" height="700.000000pt" viewBox="0 0 700.000000 700.000000"
 preserveAspectRatio="xMidYMid meet">
<metadata>
Created by potrace 1.11, written by Peter Selinger 2001-2013
</metadata>
<g transform="translate(0.000000,700.000000) scale(0.100000,-0.100000)"
fill="#000000" stroke="none">
<path d="M740 3505 l0 -1675 360 0 360 0 1 953 0 952 300 -597 299 -598 360 0
360 0 299 598 300 597 0 -958 1 -957 358 2 357 3 3 1678 2 1677 -362 0 -363 0
-474 -955 c-261 -525 -477 -955 -480 -955 -3 0 -221 430 -484 955 l-477 955
-360 0 -360 0 0 -1675z"/>
<path d="M4600 4823 l0 -360 168 -6 c186 -6 290 -24 402 -68 395 -157 638
-551 599 -970 -37 -398 -302 -720 -686 -835 -77 -23 -112 -27 -283 -33 l-195
-6 0 -360 0 -360 175 2 c197 2 301 14 442 49 612 152 1081 628 1232 1249 55
228 51 537 -9 775 -136 540 -516 971 -1027 1166 -196 74 -352 102 -620 111
l-198 6 0 -360z"/>
</g>
</svg>
